HIERARCHY
ROOT Spine
{
    OFFSET 0.0 0.0 -0.0
    CHANNELS 6 Xposition Yposition Zposition Zrotation Xrotation Yrotation
    JOINT ShoulderCenter
    {
        OFFSET 0.0 33.003990173339844 0.0
        CHANNELS 3 Zrotation Xrotation Yrotation
        JOINT LeftShoulder
        {
            OFFSET 18.716466903686523 0.0 0.0
            CHANNELS 3 Zrotation Xrotation Yrotation
            JOINT LeftElbow
            {
                OFFSET 28.854522705078125 0.0 0.0
                CHANNELS 3 Zrotation Xrotation Yrotation
                JOINT LeftHand
                {
                    OFFSET 32.45916748046875 0.0 0.0
                    CHANNELS 3 Zrotation Xrotation Yrotation
                    End Site
                    {
                        OFFSET 12.983667373657227 0.0 0.0
                    }
                }
            }
        }
        JOINT RightShoulder
        {
            OFFSET -18.716466903686523 0.0 0.0
            CHANNELS 3 Zrotation Xrotation Yrotation
            JOINT RightElbow
            {
                OFFSET -28.854522705078125 0.0 0.0
                CHANNELS 3 Zrotation Xrotation Yrotation
                JOINT RightHand
                {
                    OFFSET -32.45916748046875 0.0 0.0
                    CHANNELS 3 Zrotation Xrotation Yrotation
                    End Site
                    {
                        OFFSET -12.983667373657227 0.0 0.0
                    }
                }
            }
        }
        End Site
        {
            OFFSET 0.0 13.201595306396484 0.0
        }
    }
    JOINT LeftHip
    {
        OFFSET 15.539866733763192 -15.539866733763192 0.0
        CHANNELS 3 Zrotation Xrotation Yrotation
        JOINT LeftKnee
        {
            OFFSET 0.0 -41.1812744140625 0.0
            CHANNELS 3 Zrotation Xrotation Yrotation
            JOINT LeftFoot
            {
                OFFSET 0.0 -42.709556579589844 0.0
                CHANNELS 3 Zrotation Xrotation Yrotation
                End Site
                {
                    OFFSET 0.0 0.0 17.083824157714844
                }
            }
        }
    }
    JOINT RightHip
    {
        OFFSET -15.539866733763192 -15.539866733763192 0.0
        CHANNELS 3 Zrotation Xrotation Yrotation
        JOINT RightKnee
        {
            OFFSET 0.0 -41.1812744140625 0.0
            CHANNELS 3 Zrotation Xrotation Yrotation
            JOINT RightFoot
            {
                OFFSET 0.0 -42.709556579589844 0.0
                CHANNELS 3 Zrotation Xrotation Yrotation
                End Site
                {
                    OFFSET 0.0 0.0 17.083824157714844
                }
            }
        }
    }
}
MOTION
Frames: 9
Frame Time: 0.03333333333333333
-150.8000030517578 10.199999809265137 -26.30000114440918 -3.6329507331455724 -17.744177612883515 169.8148137652234 2.8133083706107405e-07 -1.2459495741813584e-07 1.4058124115595032 101.95971749075109 13.70667349549992 -176.13374312424548 -2.3231545475380802e-06 9.96504077350495e-07 44.43439745882947 0.0 0.0 0.0 -112.88514341404475 53.70350916937579 165.13318252175446 2.800160951347445e-06 4.677210902529113e-06 -54.86639815054044 0.0 6.3611093629270335e-15 0.0 1.1997549732713857 -15.940476899622993 -23.79131391750405 -11.482651180743412 8.079442052552718 -12.094886848884634 -7.951386703658792e-16 -4.138037154422024e-33 5.963540027744094e-16 8.636956047110708 -43.36371549167036 -33.47607367461353 -12.382261539515984 15.524453854774011 39.191048455144646 -9.939233379573489e-17 -4.741500906108568e-34 5.466578358765419e-16
-150.6999969482422 10.59999942779541 -28.200000762939453 -6.5611102789416265 -17.774302656087226 164.72685510369453 -1.219525290716338e-07 -1.018590400252281e-06 2.6105392889654233 99.46548419003888 15.003057525554294 179.33911470520394 -1.3270354685651352e-06 5.121779462767635e-08 46.07361996730717 -4.4139062980501586e-32 -1.5902773407317584e-15 -3.1805546814635168e-15 -113.41659400173305 52.561995186074526 160.51390292374344 3.1086878039955333e-07 5.30868154435138e-06 -51.88594976641087 3.1805546814635168e-15 0.0 0.0 3.4522374225917183 -21.47718848504384 -9.733316543154404 -16.26692478354682 19.812348700207195 -28.753845675022205 0.0 0.0 1.987846675914698e-16 9.552907900353164 -41.400166651694676 -25.65945805531903 -10.3638667980616 14.118508749782846 31.84251301705772 -9.93923337957349e-17 3.0173187584327256e-34 -3.4787316828507215e-16
-150.60000610351562 11.100000381469727 -29.80000114440918 -8.233272441360501 -18.312400015834847 160.55311057734656 -3.8398772255563946e-07 2.32608186669543e-07 5.335926150082676 98.69442402315607 12.257860674634902 -177.15722292268387 6.216919418561762e-07 -1.1874429799410113e-06 37.47045881413439 -6.3611093629270335e-15 1.7655625192200634e-31 -3.1805546814635168e-15 -112.36853683990687 53.225458830238026 155.63108537691465 -1.202327038438553e-06 -1.9361859704242677e-06 -48.19854606254843 -3.1805546814635164e-15 6.361109362927033e-15 1.7655625192200634e-31 6.192724386435282 -27.310718138162365 5.069969461202445 -15.293515765049557 33.16418753294013 -45.03767656064289 1.5902773407317582e-15 -7.724336021587778e-32 -5.5659706925611536e-15 8.883771182042356 -39.93797505619811 -20.521816750984073 -6.91423882701249 13.951688897289214 30.641099137712366 -1.987846675914698e-16 -3.4483642953516864e-34 1.987846675914698e-16
-150.60000610351562 10.899999618530273 -31.0 -9.763750785657255 -19.22724403784207 157.27950794708428 3.385044250906918e-07 1.2741850586348258e-06 5.7587283749216605 98.79727011645704 9.366789255550716 -178.3610274263632 -4.712065065290259e-06 2.561956622254793e-06 36.70162659631311 0.0 0.0 0.0 -110.4450321217825 51.62612846903976 149.55882224786623 -4.384112766102783e-06 -2.202759557308609e-06 -43.72663432885655 3.1805546814635168e-15 0.0 0.0 8.015810999088384 -33.744557699230434 28.322337091569327 3.679439386960866 44.9966076665713 -76.05513253785479 -3.1805546814635168e-15 2.2069531490250793e-32 -7.951386703658792e-16 9.648692704225306 -40.6325154574275 -19.254125155358242 -6.600864844323731 14.173167787781102 30.476297155032896 3.975693351829396e-16 2.758691436281349e-33 7.951386703658792e-16
-150.60000610351562 11.0 -32.400001525878906 -13.815026676280567 -18.648878590138015 150.31227134497303 -5.757638374915832e-07 -7.798841403016041e-07 8.816953130512072 96.54937462957288 11.144604782322796 -177.98050214931334 -7.746000675016145e-07 2.7637011274165266e-06 38.01748034714189 2.2069531490250793e-32 -7.951386703658792e-16 3.1805546814635168e-15 -107.8519612855346 51.13749812510284 141.4455399170938 -6.184750555061392e-06 -3.804435644807357e-06 -38.424785489286734 -1.7655625192200634e-31 -6.3611093629270335e-15 -3.1805546814635168e-15 12.029931773801335 -40.65945870670932 67.9261924783359 43.42130298828289 37.058859845568165 -131.68187680570168 0.0 0.0 -8.348956038841732e-15 11.092946491030157 -40.00733806351551 -13.482815865352899 -7.168136551872608 12.389619501647978 24.247027593159057 3.975693351829397e-16 -5.0001282282599455e-33 -1.4411888400381565e-15
-150.5 11.699999809265137 -33.79999923706055 -17.289175096163913 -17.049711653628 144.5239116344717 1.532720881940679e-06 -8.69565805905482e-07 11.474346944559503 94.79158058951998 8.360228514077397 -178.63477746444752 2.0129355717721775e-06 2.4364210699893495e-06 38.387302362682135 0.0 0.0 0.0 -106.04603038826875 50.346176413072925 135.00086665303354 3.866938731562951e-06 5.126358795465785e-07 -32.6693502875074 0.0 0.0 7.951386703658791e-16 13.081728258302109 -46.183874584854394 81.58996798025167 58.495114647760445 26.29395193279073 -150.30001280033196 0.0 0.0 1.5902773407317584e-15 9.834395380808784 -37.46798372685015 -9.562724548299174 -5.6784772141884865 8.651438976232887 16.46768285269587 -3.975693351829397e-16 7.951386703658792e-16 7.702905869169454e-15
-150.5 12.199999809265137 -35.10000228881836 -18.949059482904065 -16.673262346051203 137.5983026788813 9.135448805052101e-07 2.3619352115215694e-07 13.901748762984607 93.44775002409837 11.307133968612087 177.94554329647227 -9.735492546325851e-06 4.6949769275806813e-07 44.737303582442635 -8.827812596100317e-32 -3.1805546814635168e-15 -3.1805546814635168e-15 -98.4765572087183 47.99331719592839 125.50994534907319 -3.449812434965834e-06 -2.8089483006432912e-06 -26.47332718385551 0.0 0.0 3.578124016646457e-15 20.204061926355802 -51.42938689850405 98.58249835197616 68.98270704892556 15.213729322221793 -164.71131742080078 -7.724336021587778e-32 -3.1805546814635176e-15 -2.782985346280578e-15 12.196257106070147 -34.03569589010756 -0.3697946334371957 -4.213501895283754 3.412390865823773 5.847764278330071 7.951386703658792e-16 5.103579157120495e-32 7.355032700884382e-15
-150.60000610351562 12.5 -36.0 -19.067078908176228 -17.76190162259859 135.32687453243855 1.1971571441160983e-06 -9.115089576677722e-07 13.908868309519294 97.92761306597184 4.40756856523884 179.56263494668605 -1.234332756138191e-06 -8.334381889963039e-07 44.404555245485064 6.361109362927033e-15 7.951386703658792e-16 3.1805546814635164e-15 -80.65517574888668 47.736843654679035 111.08010481333301 -2.636275964648777e-06 -5.637023804358594e-07 -23.68332588950033 -8.827812596100317e-32 -6.3611093629270335e-15 -1.5902773407317584e-15 25.57965076356731 -58.72727762206092 98.20820554073265 75.2603973516908 17.156442221917022 -162.20529581587246 -6.361109362927033e-15 -5.29668755766019e-31 9.541664044390549e-15 12.260355173412062 -34.055876186500555 -3.915037782752854 -2.8749856609376514 1.652844177572938 3.137705035570038 7.951386703658791e-16 1.5862475758617757e-32 2.286023677301902e-15
-151.1999969482422 12.600000381469727 -36.89999771118164 -21.93612439681272 -17.402113016153073 128.4159712976303 -2.766888136306274e-07 -2.3167484437673943e-06 16.38897998491392 96.95890331603384 4.392811263953029 -179.84450422526058 3.017216374609706e-06 -1.632478868391621e-06 47.354309208818286 6.3611093629270335e-15 -2.3854160110976376e-15 1.3241718894150476e-31 -78.18331028300476 44.13840861372793 108.48642921287554 2.6516284782058e-06 1.0382243029095509e-06 -26.152125783608067 -3.1805546814635168e-15 -6.3611093629270335e-15 -1.7655625192200634e-31 39.901458835883204 -64.94060946199598 118.2197878213915 81.10752643972123 12.05551615575327 -166.67849434438548 0.0 0.0 -2.3854160110976376e-15 14.056162153593107 -34.184129710055736 0.9422941092092165 -2.5143167525217516 0.10380393136886008 0.17860800424867124 -1.2276176891452003e-31 1.590277340731758e-15 8.845917707820405e-15
